<?xml version="1.0" encoding="iso-8859-1"?>
<!-- Generator: Adobe Illustrator 19.0.0, SVG Export Plug-In . SVG Version: 6.00 Build 0)  -->
<svg version="1.1" id="Capa_1" xmlns="http://www.w3.org/2000/svg" xmlns:xlink="http://www.w3.org/1999/xlink" x="0px" y="0px"
	 viewBox="0 0 512 512" style="enable-background:new 0 0 512 512;" xml:space="preserve">
<path style="fill:#9F7AF9;" d="M467,0H45C20.099,0,0,20.099,0,45v422c0,24.901,20.099,45,45,45h422c24.901,0,45-20.099,45-45V45
	C512,20.099,491.901,0,467,0z"/>
<path style="fill:#7F58F9;" d="M512,45v422c0,24.901-20.099,45-45,45H256V0h211C491.901,0,512,20.099,512,45z"/>
<path style="fill:#4B1B7A;" d="M467,30H45c-8.401,0-15,6.599-15,15v422c0,8.401,6.599,15,15,15h422c8.401,0,15-6.599,15-15V45
	C482,36.599,475.401,30,467,30z"/>
<path style="fill:#2C0652;" d="M482,45v422c0,8.401-6.599,15-15,15H256V30h211C475.401,30,482,36.599,482,45z"/>
<g>
	<path style="fill:#7F58F9;" d="M406,271h-30c-8.291,0-15-6.709-15-15v-30c0-8.291,6.709-15,15-15h30c8.291,0,15,6.709,15,15v30
		C421,264.291,414.291,271,406,271z"/>
	<path style="fill:#7F58F9;" d="M346,211h-30c-8.291,0-15-6.709-15-15v-30c0-8.291,6.709-15,15-15h30c8.291,0,15,6.709,15,15v30
		C361,204.291,354.291,211,346,211z"/>
</g>
<path style="fill:#9F7AF9;" d="M286,151h-30c-8.291,0-15-6.709-15-15v-30c0-8.291,6.709-15,15-15h30c8.291,0,15,6.709,15,15v30
	C301,144.291,294.291,151,286,151z"/>
<g>
	<path style="fill:#7F58F9;" d="M286,151c8.291,0,15-6.709,15-15v-30c0-8.291-6.709-15-15-15h-30v60H286z"/>
	<path style="fill:#7F58F9;" d="M406,151h-30c-8.291,0-15-6.709-15-15v-30c0-8.291,6.709-15,15-15h30c8.291,0,15,6.709,15,15v30
		C421,144.291,414.291,151,406,151z"/>
</g>
<path style="fill:#9F7AF9;" d="M406,331h-45v-45c0-8.291-6.709-15-15-15h-45v-45c0-8.291-6.709-15-15-15h-45v-45
	c0-8.291-6.709-15-15-15h-45v-45c0-8.291-6.709-15-15-15h-60c-8.291,0-15,6.709-15,15v270v30c0,8.291,6.709,15,15,15h30h270
	c8.291,0,15-6.709,15-15v-60C421,337.709,414.291,331,406,331z"/>
<path style="fill:#7F58F9;" d="M406,331h-45v-45c0-8.291-6.709-15-15-15h-45v-45c0-8.291-6.709-15-15-15h-30v210h150
	c8.291,0,15-6.709,15-15v-60C421,337.709,414.291,331,406,331z"/>
<g>
</g>
<g>
</g>
<g>
</g>
<g>
</g>
<g>
</g>
<g>
</g>
<g>
</g>
<g>
</g>
<g>
</g>
<g>
</g>
<g>
</g>
<g>
</g>
<g>
</g>
<g>
</g>
<g>
</g>
</svg>
